<svg xmlns="http://www.w3.org/2000/svg" width="18.032" height="22.193" viewBox="0 0 18.032 22.193">
  <path id="Icon_metro-bin" data-name="Icon metro-bin" d="M3.636,7.9V21.77a1.391,1.391,0,0,0,1.387,1.387H17.507a1.391,1.391,0,0,0,1.387-1.387V7.9H3.636ZM7.8,20.383H6.411v-9.71H7.8Zm2.774,0H9.185v-9.71h1.387Zm2.774,0H11.959v-9.71h1.387Zm2.774,0H14.733v-9.71H16.12ZM19.241,3.738H14.733V2a1.043,1.043,0,0,0-1.04-1.04H8.838A1.043,1.043,0,0,0,7.8,2V3.738H3.29a1.043,1.043,0,0,0-1.04,1.04V6.512H20.282V4.779A1.043,1.043,0,0,0,19.241,3.738Zm-5.9,0H9.185V2.368h4.161v1.37Z" transform="translate(-2.249 -0.964)" fill="#a6a6a6"/>
</svg>
